solid BALL/PART41
  facet normal 0.1116838670 -0.9747869881 -0.1931761932
    outer loop
      vertex 0.0001250000 0.0000450000 0.0004000000
      vertex 0.0001250000 0.0000511152 0.0003691422
      vertex 0.0001514710 0.0000501582 0.0003892752
    endloop
  endfacet
  facet normal 0.2426536948 -0.9603894295 0.1370084964
    outer loop
      vertex 0.0001250000 0.0000450000 0.0004000000
      vertex 0.0001514710 0.0000501582 0.0003892752
      vertex 0.0001565460 0.0000569447 0.0004278580
    endloop
  endfacet
  facet normal -0.1167627255 -0.9727781942 0.2001725527
    outer loop
      vertex 0.0001250000 0.0000450000 0.0004000000
      vertex 0.0001250000 0.0000514920 0.0004315489
      vertex 0.0000972947 0.0000511732 0.0004138390
    endloop
  endfacet
  facet normal -0.2016763115 -0.9607680564 -0.1903980233
    outer loop
      vertex 0.0001250000 0.0000450000 0.0004000000
      vertex 0.0000891514 0.0000569995 0.0003774214
      vertex 0.0001250000 0.0000511152 0.0003691422
    endloop
  endfacet
  facet normal 0.1893934488 -0.9617506824 0.1979033765
    outer loop
      vertex 0.0001250000 0.0000450000 0.0004000000
      vertex 0.0001565460 0.0000569447 0.0004278580
      vertex 0.0001250000 0.0000514920 0.0004315489
    endloop
  endfacet
  facet normal -0.2615537764 -0.9604846098 -0.0951784452
    outer loop
      vertex 0.0001250000 0.0000450000 0.0004000000
      vertex 0.0000972947 0.0000511732 0.0004138390
      vertex 0.0000891514 0.0000569995 0.0003774214
    endloop
  endfacet
  facet normal 0.9515324023 -0.1693292495 0.2567366210
    outer loop
      vertex 0.0002050000 0.0001250000 0.0004000000
      vertex 0.0001942219 0.0001250000 0.0004399465
      vertex 0.0001904978 0.0000922517 0.0004321500
    endloop
  endfacet
  facet normal 0.9673635329 0.1603989371 -0.1961631368
    outer loop
      vertex 0.0002050000 0.0001250000 0.0004000000
      vertex 0.0001986073 0.0001250000 0.0003684747
      vertex 0.0001952425 0.0001562562 0.0003774390
    endloop
  endfacet
  facet normal 0.9729425134 -0.1202404508 -0.1972944491
    outer loop
      vertex 0.0002050000 0.0001250000 0.0004000000
      vertex 0.0001995472 0.0000975286 0.0003898520
      vertex 0.0001986073 0.0001250000 0.0003684747
    endloop
  endfacet
  facet normal 0.9521272702 -0.2525960151 0.1721886015
    outer loop
      vertex 0.0002050000 0.0001250000 0.0004000000
      vertex 0.0001904978 0.0000922517 0.0004321500
      vertex 0.0001995472 0.0000975286 0.0003898520
    endloop
  endfacet
  facet normal 0.9664010024 0.2445410652 -0.0791755643
    outer loop
      vertex 0.0002050000 0.0001250000 0.0004000000
      vertex 0.0001952425 0.0001562562 0.0003774390
      vertex 0.0001982822 0.0001552104 0.0004113120
    endloop
  endfacet
  facet normal 0.9589168600 0.1163517693 0.2587290500
    outer loop
      vertex 0.0002050000 0.0001250000 0.0004000000
      vertex 0.0001982822 0.0001552104 0.0004113120
      vertex 0.0001942219 0.0001250000 0.0004399465
    endloop
  endfacet
  facet normal -0.9706924120 -0.1757329939 -0.1639333896
    outer loop
      vertex 0.0000450000 0.0001250000 0.0004000000
      vertex 0.0000495374 0.0001250000 0.0003731327
      vertex 0.0000542057 0.0000944039 0.0003782889
    endloop
  endfacet
  facet normal -0.9685671638 0.1502799701 0.1982260825
    outer loop
      vertex 0.0000450000 0.0001250000 0.0004000000
      vertex 0.0000514223 0.0001250000 0.0004313806
      vertex 0.0000541587 0.0001551627 0.0004218838
    endloop
  endfacet
  facet normal -0.9678483635 -0.2416427045 -0.0698451766
    outer loop
      vertex 0.0000450000 0.0001250000 0.0004000000
      vertex 0.0000542057 0.0000944039 0.0003782889
      vertex 0.0000503746 0.0000994907 0.0004137782
    endloop
  endfacet
  facet normal -0.9706655927 0.2106804201 0.1158536482
    outer loop
      vertex 0.0000450000 0.0001250000 0.0004000000
      vertex 0.0000541587 0.0001551627 0.0004218838
      vertex 0.0000498933 0.0001517448 0.0003923627
    endloop
  endfacet
  facet normal -0.9774485547 0.1316995433 -0.1650743869
    outer loop
      vertex 0.0000450000 0.0001250000 0.0004000000
      vertex 0.0000498933 0.0001517448 0.0003923627
      vertex 0.0000495374 0.0001250000 0.0003731327
    endloop
  endfacet
  facet normal -0.9750112043 -0.0976472159 0.1995449140
    outer loop
      vertex 0.0000450000 0.0001250000 0.0004000000
      vertex 0.0000503746 0.0000994907 0.0004137782
      vertex 0.0000514223 0.0001250000 0.0004313806
    endloop
  endfacet
  facet normal 0.2157009356 0.1865809228 0.9584678741
    outer loop
      vertex 0.0001604284 0.0001501049 0.0004671398
      vertex 0.0001250000 0.0001549490 0.0004741699
      vertex 0.0001250000 0.0001250000 0.0004800000
    endloop
  endfacet
  facet normal -0.2348815961 0.2384603307 0.9423201720
    outer loop
      vertex 0.0001250000 0.0001549490 0.0004741699
      vertex 0.0000977368 0.0001613893 0.0004657446
      vertex 0.0000951768 0.0001250000 0.0004743150
    endloop
  endfacet
  facet normal -0.1840933202 -0.1828425185 0.9657526924
    outer loop
      vertex 0.0001250000 0.0000953475 0.0004743860
      vertex 0.0001250000 0.0001250000 0.0004800000
      vertex 0.0000951768 0.0001250000 0.0004743150
    endloop
  endfacet
  facet normal 0.2610357840 -0.1795723203 0.9484798897
    outer loop
      vertex 0.0001250000 0.0001250000 0.0004800000
      vertex 0.0001250000 0.0000953475 0.0004743860
      vertex 0.0001539766 0.0000889984 0.0004652091
    endloop
  endfacet
  facet normal 0.2546756124 -0.1849751402 0.9491704431
    outer loop
      vertex 0.0001250000 0.0001250000 0.0004800000
      vertex 0.0001539766 0.0000889984 0.0004652091
      vertex 0.0001650190 0.0001250000 0.0004692623
    endloop
  endfacet
  facet normal -0.1839175562 0.1878195348 0.9648306353
    outer loop
      vertex 0.0000951768 0.0001250000 0.0004743150
      vertex 0.0001250000 0.0001250000 0.0004800000
      vertex 0.0001250000 0.0001549490 0.0004741699
    endloop
  endfacet
  facet normal 0.2570165601 0.1279822561 0.9578951038
    outer loop
      vertex 0.0001250000 0.0001250000 0.0004800000
      vertex 0.0001650190 0.0001250000 0.0004692623
      vertex 0.0001604284 0.0001501049 0.0004671398
    endloop
  endfacet
  facet normal -0.2467150726 -0.2458924476 0.9373732326
    outer loop
      vertex 0.0000951768 0.0001250000 0.0004743150
      vertex 0.0000915704 0.0000921833 0.0004647573
      vertex 0.0001250000 0.0000953475 0.0004743860
    endloop
  endfacet
  facet normal 0.8025734463 -0.5371174555 -0.2595779312
    outer loop
      vertex 0.0001806611 0.0000678969 0.0003927731
      vertex 0.0001858102 0.0000911531 0.0003605716
      vertex 0.0001995472 0.0000975286 0.0003898520
    endloop
  endfacet
  facet normal 0.6815041585 -0.6862465988 0.2542000935
    outer loop
      vertex 0.0001806611 0.0000678969 0.0003927731
      vertex 0.0001904978 0.0000922517 0.0004321500
      vertex 0.0001565460 0.0000569447 0.0004278580
    endloop
  endfacet
  facet normal 0.5101889479 -0.8560036152 0.0834568646
    outer loop
      vertex 0.0001806611 0.0000678969 0.0003927731
      vertex 0.0001565460 0.0000569447 0.0004278580
      vertex 0.0001514710 0.0000501582 0.0003892752
    endloop
  endfacet
  facet normal 0.6506635963 -0.6611798970 -0.3734675733
    outer loop
      vertex 0.0001806611 0.0000678969 0.0003927731
      vertex 0.0001578016 0.0000634270 0.0003608602
      vertex 0.0001858102 0.0000911531 0.0003605716
    endloop
  endfacet
  facet normal 0.8428008970 -0.5258600882 0.1147075222
    outer loop
      vertex 0.0001806611 0.0000678969 0.0003927731
      vertex 0.0001995472 0.0000975286 0.0003898520
      vertex 0.0001904978 0.0000922517 0.0004321500
    endloop
  endfacet
  facet normal 0.5239298334 -0.8105404190 -0.2617666114
    outer loop
      vertex 0.0001806611 0.0000678969 0.0003927731
      vertex 0.0001514710 0.0000501582 0.0003892752
      vertex 0.0001578016 0.0000634270 0.0003608602
    endloop
  endfacet
  facet normal -0.7205661082 -0.6689709786 -0.1823795862
    outer loop
      vertex 0.0000678537 0.0000703570 0.0004125711
      vertex 0.0000542057 0.0000944039 0.0003782889
      vertex 0.0000891514 0.0000569995 0.0003774214
    endloop
  endfacet
  facet normal -0.6470595944 -0.6334538697 0.4243230800
    outer loop
      vertex 0.0000678537 0.0000703570 0.0004125711
      vertex 0.0000917096 0.0000653245 0.0004414367
      vertex 0.0000642793 0.0000930241 0.0004409591
    endloop
  endfacet
  facet normal -0.5455266329 -0.8380063585 -0.0120845314
    outer loop
      vertex 0.0000678537 0.0000703570 0.0004125711
      vertex 0.0000891514 0.0000569995 0.0003774214
      vertex 0.0000972947 0.0000511732 0.0004138390
    endloop
  endfacet
  facet normal -0.8133224527 -0.5002709365 0.2970447407
    outer loop
      vertex 0.0000678537 0.0000703570 0.0004125711
      vertex 0.0000642793 0.0000930241 0.0004409591
      vertex 0.0000503746 0.0000994907 0.0004137782
    endloop
  endfacet
  facet normal -0.8576992771 -0.5138025453 -0.0189445104
    outer loop
      vertex 0.0000678537 0.0000703570 0.0004125711
      vertex 0.0000503746 0.0000994907 0.0004137782
      vertex 0.0000542057 0.0000944039 0.0003782889
    endloop
  endfacet
  facet normal -0.5298789054 -0.7933918994 0.2995957936
    outer loop
      vertex 0.0000678537 0.0000703570 0.0004125711
      vertex 0.0000972947 0.0000511732 0.0004138390
      vertex 0.0000917096 0.0000653245 0.0004414367
    endloop
  endfacet
  facet normal -0.3073028209 0.2911977444 -0.9059629407
    outer loop
      vertex 0.0000908046 0.0001250000 0.0003276912
      vertex 0.0000868925 0.0001637131 0.0003414615
      vertex 0.0001250000 0.0001531558 0.0003251421
    endloop
  endfacet
  facet normal -0.3150020713 -0.3047201429 -0.8988433287
    outer loop
      vertex 0.0001250000 0.0000946463 0.0003259977
      vertex 0.0000825580 0.0000887693 0.0003428640
      vertex 0.0000908046 0.0001250000 0.0003276912
    endloop
  endfacet
  facet normal 0.2515026317 -0.2545347011 -0.9337871878
    outer loop
      vertex 0.0001546703 0.0001250000 0.0003257151
      vertex 0.0001584939 0.0000907389 0.0003360839
      vertex 0.0001250000 0.0000946463 0.0003259977
    endloop
  endfacet
  facet normal 0.1579026960 0.1774038479 -0.9713879829
    outer loop
      vertex 0.0001250000 0.0001250000 0.0003200000
      vertex 0.0001250000 0.0001531558 0.0003251421
      vertex 0.0001471164 0.0001541431 0.0003289175
    endloop
  endfacet
  facet normal -0.2154707729 -0.1892918286 -0.9579879695
    outer loop
      vertex 0.0000908046 0.0001250000 0.0003276912
      vertex 0.0001250000 0.0001250000 0.0003200000
      vertex 0.0001250000 0.0000946463 0.0003259977
    endloop
  endfacet
  facet normal 0.1856791790 -0.1904743100 -0.9639723957
    outer loop
      vertex 0.0001250000 0.0000946463 0.0003259977
      vertex 0.0001250000 0.0001250000 0.0003200000
      vertex 0.0001546703 0.0001250000 0.0003257151
    endloop
  endfacet
  facet normal 0.1868551502 0.1550311613 -0.9700775700
    outer loop
      vertex 0.0001250000 0.0001250000 0.0003200000
      vertex 0.0001471164 0.0001541431 0.0003289175
      vertex 0.0001546703 0.0001250000 0.0003257151
    endloop
  endfacet
  facet normal -0.2160355345 0.1754151852 -0.9604989124
    outer loop
      vertex 0.0001250000 0.0001531558 0.0003251421
      vertex 0.0001250000 0.0001250000 0.0003200000
      vertex 0.0000908046 0.0001250000 0.0003276912
    endloop
  endfacet
  facet normal 0.6094389797 0.7539214044 0.2453296681
    outer loop
      vertex 0.0001797968 0.0001832425 0.0003980508
      vertex 0.0001542067 0.0001969937 0.0004193620
      vertex 0.0001792150 0.0001713161 0.0004361472
    endloop
  endfacet
  facet normal 0.6926793723 0.6441957272 -0.3243565202
    outer loop
      vertex 0.0001797968 0.0001832425 0.0003980508
      vertex 0.0001952425 0.0001562562 0.0003774390
      vertex 0.0001626434 0.0001812070 0.0003573762
    endloop
  endfacet
  facet normal 0.7714859575 0.6037335357 0.2007865414
    outer loop
      vertex 0.0001797968 0.0001832425 0.0003980508
      vertex 0.0001792150 0.0001713161 0.0004361472
      vertex 0.0001982822 0.0001552104 0.0004113120
    endloop
  endfacet
  facet normal 0.8460624436 0.5297448681 -0.0595711023
    outer loop
      vertex 0.0001797968 0.0001832425 0.0003980508
      vertex 0.0001982822 0.0001552104 0.0004113120
      vertex 0.0001952425 0.0001562562 0.0003774390
    endloop
  endfacet
  facet normal 0.5581513770 0.7829935378 -0.2745690442
    outer loop
      vertex 0.0001797968 0.0001832425 0.0003980508
      vertex 0.0001626434 0.0001812070 0.0003573762
      vertex 0.0001517382 0.0001994344 0.0003871871
    endloop
  endfacet
  facet normal 0.4913669927 0.8704916558 0.0283329441
    outer loop
      vertex 0.0001797968 0.0001832425 0.0003980508
      vertex 0.0001517382 0.0001994344 0.0003871871
      vertex 0.0001542067 0.0001969937 0.0004193620
    endloop
  endfacet
  facet normal 0.2291738599 0.9717657289 0.0561311866
    outer loop
      vertex 0.0001250000 0.0002050000 0.0004000000
      vertex 0.0001542067 0.0001969937 0.0004193620
      vertex 0.0001517382 0.0001994344 0.0003871871
    endloop
  endfacet
  facet normal 0.1024046551 0.9725882467 -0.2087711402
    outer loop
      vertex 0.0001250000 0.0002050000 0.0004000000
      vertex 0.0001517382 0.0001994344 0.0003871871
      vertex 0.0001250000 0.0001979605 0.0003672056
    endloop
  endfacet
  facet normal -0.1886748583 0.9601679552 -0.2061050598
    outer loop
      vertex 0.0001250000 0.0002050000 0.0004000000
      vertex 0.0001250000 0.0001979605 0.0003672056
      vertex 0.0000920292 0.0001925940 0.0003723876
    endloop
  endfacet
  facet normal -0.2459648343 0.9594916745 -0.1373936931
    outer loop
      vertex 0.0001250000 0.0002050000 0.0004000000
      vertex 0.0000920292 0.0001925940 0.0003723876
      vertex 0.0000959913 0.0001989650 0.0004097866
    endloop
  endfacet
  facet normal 0.1343551167 0.9707952787 0.1987592249
    outer loop
      vertex 0.0001250000 0.0002050000 0.0004000000
      vertex 0.0001250000 0.0001985879 0.0004313182
      vertex 0.0001542067 0.0001969937 0.0004193620
    endloop
  endfacet
  facet normal -0.1348989627 0.9707228913 0.1987444044
    outer loop
      vertex 0.0001250000 0.0002050000 0.0004000000
      vertex 0.0000959913 0.0001989650 0.0004097866
      vertex 0.0001250000 0.0001985879 0.0004313182
    endloop
  endfacet
  facet normal -0.7108602643 0.5111578991 0.4831100152
    outer loop
      vertex 0.0000856145 0.0001821137 0.0004396530
      vertex 0.0000541587 0.0001551627 0.0004218838
      vertex 0.0000704546 0.0001477030 0.0004537549
    endloop
  endfacet
  facet normal -0.5477117934 0.5123613224 0.6614360640
    outer loop
      vertex 0.0000704546 0.0001477030 0.0004537549
      vertex 0.0000977368 0.0001613893 0.0004657446
      vertex 0.0000856145 0.0001821137 0.0004396530
    endloop
  endfacet
  facet normal -0.2758023926 0.6861528573 0.6731473067
    outer loop
      vertex 0.0001250000 0.0001803341 0.0004576041
      vertex 0.0000856145 0.0001821137 0.0004396530
      vertex 0.0000977368 0.0001613893 0.0004657446
    endloop
  endfacet
  facet normal -0.2175221521 0.8017056388 0.5567334928
    outer loop
      vertex 0.0001250000 0.0001985879 0.0004313182
      vertex 0.0000856145 0.0001821137 0.0004396530
      vertex 0.0001250000 0.0001803341 0.0004576041
    endloop
  endfacet
  facet normal -0.2820179620 0.8742047806 0.3952617749
    outer loop
      vertex 0.0001250000 0.0001985879 0.0004313182
      vertex 0.0000959913 0.0001989650 0.0004097866
      vertex 0.0000856145 0.0001821137 0.0004396530
    endloop
  endfacet
  facet normal -0.6672330984 0.4283042029 -0.6093894503
    outer loop
      vertex 0.0000664334 0.0001414642 0.0003482251
      vertex 0.0000622709 0.0001630636 0.0003679637
      vertex 0.0000868925 0.0001637131 0.0003414615
    endloop
  endfacet
  facet normal -0.2149213948 0.8410103246 -0.4964981651
    outer loop
      vertex 0.0001096910 0.0001810723 0.0003452258
      vertex 0.0000920292 0.0001925940 0.0003723876
      vertex 0.0001250000 0.0001979605 0.0003672056
    endloop
  endfacet
  facet normal -0.4330130110 0.6935441943 -0.5757570519
    outer loop
      vertex 0.0001096910 0.0001810723 0.0003452258
      vertex 0.0000868925 0.0001637131 0.0003414615
      vertex 0.0000920292 0.0001925940 0.0003723876
    endloop
  endfacet
  facet normal 0.2368949288 0.8530585451 0.4649429119
    outer loop
      vertex 0.0001469967 0.0001808294 0.0004526933
      vertex 0.0001542067 0.0001969937 0.0004193620
      vertex 0.0001250000 0.0001985879 0.0004313182
    endloop
  endfacet
  facet normal 0.1082070200 0.8165503133 0.5670421736
    outer loop
      vertex 0.0001469967 0.0001808294 0.0004526933
      vertex 0.0001250000 0.0001985879 0.0004313182
      vertex 0.0001250000 0.0001803341 0.0004576041
    endloop
  endfacet
  facet normal 0.4620850671 0.7545939388 0.4659027563
    outer loop
      vertex 0.0001792150 0.0001713161 0.0004361472
      vertex 0.0001542067 0.0001969937 0.0004193620
      vertex 0.0001469967 0.0001808294 0.0004526933
    endloop
  endfacet
  facet normal 0.5053373050 0.5381064927 0.6745929222
    outer loop
      vertex 0.0001469967 0.0001808294 0.0004526933
      vertex 0.0001604284 0.0001501049 0.0004671398
      vertex 0.0001792150 0.0001713161 0.0004361472
    endloop
  endfacet
  facet normal 0.2720214991 0.8620733060 -0.4275908315
    outer loop
      vertex 0.0001626434 0.0001812070 0.0003573762
      vertex 0.0001250000 0.0001979605 0.0003672056
      vertex 0.0001517382 0.0001994344 0.0003871871
    endloop
  endfacet
  facet normal 0.1972817026 0.7865731364 -0.5851347117
    outer loop
      vertex 0.0001250000 0.0001777342 0.0003400161
      vertex 0.0001250000 0.0001979605 0.0003672056
      vertex 0.0001626434 0.0001812070 0.0003573762
    endloop
  endfacet
  facet normal -0.0281517011 0.8020236864 -0.5966284339
    outer loop
      vertex 0.0001250000 0.0001777342 0.0003400161
      vertex 0.0001096910 0.0001810723 0.0003452258
      vertex 0.0001250000 0.0001979605 0.0003672056
    endloop
  endfacet
  facet normal 0.2835974903 0.6128564308 -0.7375496313
    outer loop
      vertex 0.0001471164 0.0001541431 0.0003289175
      vertex 0.0001250000 0.0001777342 0.0003400161
      vertex 0.0001626434 0.0001812070 0.0003573762
    endloop
  endfacet
  facet normal 0.6984047835 0.5034583394 -0.5086850291
    outer loop
      vertex 0.0001626434 0.0001812070 0.0003573762
      vertex 0.0001952425 0.0001562562 0.0003774390
      vertex 0.0001782946 0.0001465458 0.0003445598
    endloop
  endfacet
  facet normal 0.4835513111 0.4872308693 -0.7271755012
    outer loop
      vertex 0.0001782946 0.0001465458 0.0003445598
      vertex 0.0001471164 0.0001541431 0.0003289175
      vertex 0.0001626434 0.0001812070 0.0003573762
    endloop
  endfacet
  facet normal 0.1220143178 0.5138747575 -0.8491438275
    outer loop
      vertex 0.0001250000 0.0001531558 0.0003251421
      vertex 0.0001250000 0.0001777342 0.0003400161
      vertex 0.0001471164 0.0001541431 0.0003289175
    endloop
  endfacet
  facet normal -0.1754800157 0.5097093342 -0.8422607427
    outer loop
      vertex 0.0001250000 0.0001531558 0.0003251421
      vertex 0.0001096910 0.0001810723 0.0003452258
      vertex 0.0001250000 0.0001777342 0.0003400161
    endloop
  endfacet
  facet normal -0.2282026675 0.4830192373 -0.8453496075
    outer loop
      vertex 0.0001250000 0.0001531558 0.0003251421
      vertex 0.0000868925 0.0001637131 0.0003414615
      vertex 0.0001096910 0.0001810723 0.0003452258
    endloop
  endfacet
  facet normal 0.4795408271 0.2177104467 -0.8500839703
    outer loop
      vertex 0.0001546703 0.0001250000 0.0003257151
      vertex 0.0001471164 0.0001541431 0.0003289175
      vertex 0.0001782946 0.0001465458 0.0003445598
    endloop
  endfacet
  facet normal -0.5273920702 0.2369283349 -0.8159182363
    outer loop
      vertex 0.0000908046 0.0001250000 0.0003276912
      vertex 0.0000664334 0.0001414642 0.0003482251
      vertex 0.0000868925 0.0001637131 0.0003414615
    endloop
  endfacet
  facet normal -0.6069777616 -0.1854669479 -0.7727742285
    outer loop
      vertex 0.0000631510 0.0001250000 0.0003494118
      vertex 0.0000908046 0.0001250000 0.0003276912
      vertex 0.0000825580 0.0000887693 0.0003428640
    endloop
  endfacet
  facet normal -0.6163345674 0.0663192531 -0.7846868533
    outer loop
      vertex 0.0000631510 0.0001250000 0.0003494118
      vertex 0.0000664334 0.0001414642 0.0003482251
      vertex 0.0000908046 0.0001250000 0.0003276912
    endloop
  endfacet
  facet normal -0.7660128185 -0.3083798116 -0.5640268200
    outer loop
      vertex 0.0000542057 0.0000944039 0.0003782889
      vertex 0.0000631510 0.0001250000 0.0003494118
      vertex 0.0000825580 0.0000887693 0.0003428640
    endloop
  endfacet
  facet normal -0.6633347734 -0.6096678915 -0.4339263078
    outer loop
      vertex 0.0000542057 0.0000944039 0.0003782889
      vertex 0.0000825580 0.0000887693 0.0003428640
      vertex 0.0000891514 0.0000569995 0.0003774214
    endloop
  endfacet
  facet normal -0.4842673185 -0.6881804622 -0.5402710576
    outer loop
      vertex 0.0001079152 0.0000673623 0.0003474028
      vertex 0.0000891514 0.0000569995 0.0003774214
      vertex 0.0000825580 0.0000887693 0.0003428640
    endloop
  endfacet
  facet normal -0.2631150769 -0.4881100574 -0.8321772817
    outer loop
      vertex 0.0001079152 0.0000673623 0.0003474028
      vertex 0.0000825580 0.0000887693 0.0003428640
      vertex 0.0001250000 0.0000946463 0.0003259977
    endloop
  endfacet
  facet normal 0.5375224883 0.1381870709 -0.8318496907
    outer loop
      vertex 0.0001799490 0.0001250000 0.0003420496
      vertex 0.0001546703 0.0001250000 0.0003257151
      vertex 0.0001782946 0.0001465458 0.0003445598
    endloop
  endfacet
  facet normal 0.6433851212 -0.2787551574 -0.7129874810
    outer loop
      vertex 0.0001584939 0.0000907389 0.0003360839
      vertex 0.0001799490 0.0001250000 0.0003420496
      vertex 0.0001858102 0.0000911531 0.0003605716
    endloop
  endfacet
  facet normal 0.5328334168 -0.1900916538 -0.8245930591
    outer loop
      vertex 0.0001584939 0.0000907389 0.0003360839
      vertex 0.0001546703 0.0001250000 0.0003257151
      vertex 0.0001799490 0.0001250000 0.0003420496
    endloop
  endfacet
  facet normal 0.1828780343 -0.5448300524 -0.8183616796
    outer loop
      vertex 0.0001250000 0.0000689006 0.0003431381
      vertex 0.0001250000 0.0000946463 0.0003259977
      vertex 0.0001584939 0.0000907389 0.0003360839
    endloop
  endfacet
  facet normal -0.1559567183 -0.5473949343 -0.8222142591
    outer loop
      vertex 0.0001250000 0.0000689006 0.0003431381
      vertex 0.0001079152 0.0000673623 0.0003474028
      vertex 0.0001250000 0.0000946463 0.0003259977
    endloop
  endfacet
  facet normal 0.2744697900 -0.6498943230 -0.7087338734
    outer loop
      vertex 0.0001578016 0.0000634270 0.0003608602
      vertex 0.0001250000 0.0000689006 0.0003431381
      vertex 0.0001584939 0.0000907389 0.0003360839
    endloop
  endfacet
  facet normal 0.5547163074 -0.5667088222 -0.6092051618
    outer loop
      vertex 0.0001578016 0.0000634270 0.0003608602
      vertex 0.0001584939 0.0000907389 0.0003360839
      vertex 0.0001858102 0.0000911531 0.0003605716
    endloop
  endfacet
  facet normal -0.4867144276 0.2325577240 0.8420367991
    outer loop
      vertex 0.0000951768 0.0001250000 0.0004743150
      vertex 0.0000977368 0.0001613893 0.0004657446
      vertex 0.0000704546 0.0001477030 0.0004537549
    endloop
  endfacet
  facet normal 0.1720522961 0.5383579040 0.8249659233
    outer loop
      vertex 0.0001250000 0.0001549490 0.0004741699
      vertex 0.0001469967 0.0001808294 0.0004526933
      vertex 0.0001250000 0.0001803341 0.0004576041
    endloop
  endfacet
  facet normal -0.1286274058 0.5419676818 0.8304974548
    outer loop
      vertex 0.0001250000 0.0001549490 0.0004741699
      vertex 0.0001250000 0.0001803341 0.0004576041
      vertex 0.0000977368 0.0001613893 0.0004657446
    endloop
  endfacet
  facet normal 0.2337507801 0.4955288242 0.8365475224
    outer loop
      vertex 0.0001250000 0.0001549490 0.0004741699
      vertex 0.0001604284 0.0001501049 0.0004671398
      vertex 0.0001469967 0.0001808294 0.0004526933
    endloop
  endfacet
  facet normal -0.8438417776 0.2292979004 0.4851324843
    outer loop
      vertex 0.0000514223 0.0001250000 0.0004313806
      vertex 0.0000704546 0.0001477030 0.0004537549
      vertex 0.0000541587 0.0001551627 0.0004218838
    endloop
  endfacet
  facet normal -0.8477266803 -0.2113333845 -0.4865158538
    outer loop
      vertex 0.0000495374 0.0001250000 0.0003731327
      vertex 0.0000631510 0.0001250000 0.0003494118
      vertex 0.0000542057 0.0000944039 0.0003782889
    endloop
  endfacet
  facet normal -0.8592851278 0.1357675047 -0.4931493220
    outer loop
      vertex 0.0000495374 0.0001250000 0.0003731327
      vertex 0.0000664334 0.0001414642 0.0003482251
      vertex 0.0000631510 0.0001250000 0.0003494118
    endloop
  endfacet
  facet normal -0.8693226881 0.2315170691 -0.4366668188
    outer loop
      vertex 0.0000495374 0.0001250000 0.0003731327
      vertex 0.0000622709 0.0001630636 0.0003679637
      vertex 0.0000664334 0.0001414642 0.0003482251
    endloop
  endfacet
  facet normal -0.9047703951 0.2565034508 -0.3399948703
    outer loop
      vertex 0.0000498933 0.0001517448 0.0003923627
      vertex 0.0000622709 0.0001630636 0.0003679637
      vertex 0.0000495374 0.0001250000 0.0003731327
    endloop
  endfacet
  facet normal 0.8047751342 -0.1715952924 -0.5682359009
    outer loop
      vertex 0.0001986073 0.0001250000 0.0003684747
      vertex 0.0001858102 0.0000911531 0.0003605716
      vertex 0.0001799490 0.0001250000 0.0003420496
    endloop
  endfacet
  facet normal 0.8100831896 0.1288399855 -0.5719838145
    outer loop
      vertex 0.0001986073 0.0001250000 0.0003684747
      vertex 0.0001799490 0.0001250000 0.0003420496
      vertex 0.0001782946 0.0001465458 0.0003445598
    endloop
  endfacet
  facet normal 0.8958103351 -0.2534490503 -0.3650855001
    outer loop
      vertex 0.0001986073 0.0001250000 0.0003684747
      vertex 0.0001995472 0.0000975286 0.0003898520
      vertex 0.0001858102 0.0000911531 0.0003605716
    endloop
  endfacet
  facet normal 0.8346709448 0.2329811581 -0.4990432785
    outer loop
      vertex 0.0001986073 0.0001250000 0.0003684747
      vertex 0.0001782946 0.0001465458 0.0003445598
      vertex 0.0001952425 0.0001562562 0.0003774390
    endloop
  endfacet
  facet normal 0.7205270210 0.2853022801 0.6320153645
    outer loop
      vertex 0.0001942219 0.0001250000 0.0004399465
      vertex 0.0001792150 0.0001713161 0.0004361472
      vertex 0.0001604284 0.0001501049 0.0004671398
    endloop
  endfacet
  facet normal 0.8405599984 0.3088571408 0.4450462400
    outer loop
      vertex 0.0001982822 0.0001552104 0.0004113120
      vertex 0.0001792150 0.0001713161 0.0004361472
      vertex 0.0001942219 0.0001250000 0.0004399465
    endloop
  endfacet
  facet normal 0.2450272156 -0.8982429376 -0.3648579020
    outer loop
      vertex 0.0001250000 0.0000511152 0.0003691422
      vertex 0.0001578016 0.0000634270 0.0003608602
      vertex 0.0001514710 0.0000501582 0.0003892752
    endloop
  endfacet
  facet normal 0.1649815343 -0.8140982026 -0.5567990750
    outer loop
      vertex 0.0001250000 0.0000511152 0.0003691422
      vertex 0.0001250000 0.0000689006 0.0003431381
      vertex 0.0001578016 0.0000634270 0.0003608602
    endloop
  endfacet
  facet normal -0.0664563851 -0.8235843608 -0.5632870934
    outer loop
      vertex 0.0001250000 0.0000511152 0.0003691422
      vertex 0.0001079152 0.0000673623 0.0003474028
      vertex 0.0001250000 0.0000689006 0.0003431381
    endloop
  endfacet
  facet normal -0.2448358230 -0.8590263985 -0.4495876626
    outer loop
      vertex 0.0001250000 0.0000511152 0.0003691422
      vertex 0.0000891514 0.0000569995 0.0003774214
      vertex 0.0001079152 0.0000673623 0.0003474028
    endloop
  endfacet
  facet normal 0.2040042972 -0.8406726302 0.5016490562
    outer loop
      vertex 0.0001380257 0.0000687419 0.0004551597
      vertex 0.0001250000 0.0000514920 0.0004315489
      vertex 0.0001565460 0.0000569447 0.0004278580
    endloop
  endfacet
  facet normal 0.1480450883 -0.5306227006 0.8345790565
    outer loop
      vertex 0.0001539766 0.0000889984 0.0004652091
      vertex 0.0001250000 0.0000953475 0.0004743860
      vertex 0.0001380257 0.0000687419 0.0004551597
    endloop
  endfacet
  facet normal 0.4598983448 -0.6579741729 0.5962914558
    outer loop
      vertex 0.0001539766 0.0000889984 0.0004652091
      vertex 0.0001380257 0.0000687419 0.0004551597
      vertex 0.0001565460 0.0000569447 0.0004278580
    endloop
  endfacet
  facet normal 0.5617358797 -0.6083346221 0.5606975914
    outer loop
      vertex 0.0001904978 0.0000922517 0.0004321500
      vertex 0.0001539766 0.0000889984 0.0004652091
      vertex 0.0001565460 0.0000569447 0.0004278580
    endloop
  endfacet
  facet normal 0.6577724488 -0.2804537954 0.6990572753
    outer loop
      vertex 0.0001650190 0.0001250000 0.0004692623
      vertex 0.0001539766 0.0000889984 0.0004652091
      vertex 0.0001904978 0.0000922517 0.0004321500
    endloop
  endfacet
  facet normal 0.6875462966 -0.2412411162 0.6848962067
    outer loop
      vertex 0.0001650190 0.0001250000 0.0004692623
      vertex 0.0001904978 0.0000922517 0.0004321500
      vertex 0.0001942219 0.0001250000 0.0004399465
    endloop
  endfacet
  facet normal 0.6961190139 0.1859166404 0.6934358812
    outer loop
      vertex 0.0001650190 0.0001250000 0.0004692623
      vertex 0.0001942219 0.0001250000 0.0004399465
      vertex 0.0001604284 0.0001501049 0.0004671398
    endloop
  endfacet
  facet normal 0.0403201432 -0.8172650282 0.5748496845
    outer loop
      vertex 0.0001250000 0.0000701454 0.0004580686
      vertex 0.0001250000 0.0000514920 0.0004315489
      vertex 0.0001380257 0.0000687419 0.0004551597
    endloop
  endfacet
  facet normal 0.1278438588 -0.5390304433 0.8325275545
    outer loop
      vertex 0.0001250000 0.0000701454 0.0004580686
      vertex 0.0001380257 0.0000687419 0.0004551597
      vertex 0.0001250000 0.0000953475 0.0004743860
    endloop
  endfacet
  facet normal -0.2469055072 -0.8816641896 0.4021267553
    outer loop
      vertex 0.0000917096 0.0000653245 0.0004414367
      vertex 0.0000972947 0.0000511732 0.0004138390
      vertex 0.0001250000 0.0000514920 0.0004315489
    endloop
  endfacet
  facet normal -0.1666209599 -0.8064963311 0.5672751745
    outer loop
      vertex 0.0000917096 0.0000653245 0.0004414367
      vertex 0.0001250000 0.0000514920 0.0004315489
      vertex 0.0001250000 0.0000701454 0.0004580686
    endloop
  endfacet
  facet normal -0.1869757258 -0.5339054545 0.8246120564
    outer loop
      vertex 0.0000915704 0.0000921833 0.0004647573
      vertex 0.0001250000 0.0000701454 0.0004580686
      vertex 0.0001250000 0.0000953475 0.0004743860
    endloop
  endfacet
  facet normal -0.2712533838 -0.6318429949 0.7260826616
    outer loop
      vertex 0.0000915704 0.0000921833 0.0004647573
      vertex 0.0000917096 0.0000653245 0.0004414367
      vertex 0.0001250000 0.0000701454 0.0004580686
    endloop
  endfacet
  facet normal -0.8865435521 -0.2375385342 0.3970087846
    outer loop
      vertex 0.0000642793 0.0000930241 0.0004409591
      vertex 0.0000514223 0.0001250000 0.0004313806
      vertex 0.0000503746 0.0000994907 0.0004137782
    endloop
  endfacet
  facet normal -0.5607197230 -0.5445142774 0.6237768784
    outer loop
      vertex 0.0000642793 0.0000930241 0.0004409591
      vertex 0.0000917096 0.0000653245 0.0004414367
      vertex 0.0000915704 0.0000921833 0.0004647573
    endloop
  endfacet
  facet normal -0.8098906683 -0.1562820026 0.5653786705
    outer loop
      vertex 0.0000698601 0.0001250000 0.0004577923
      vertex 0.0000514223 0.0001250000 0.0004313806
      vertex 0.0000642793 0.0000930241 0.0004409591
    endloop
  endfacet
  facet normal -0.8138066012 0.1223403811 0.5681123542
    outer loop
      vertex 0.0000698601 0.0001250000 0.0004577923
      vertex 0.0000704546 0.0001477030 0.0004537549
      vertex 0.0000514223 0.0001250000 0.0004313806
    endloop
  endfacet
  facet normal -0.6377484571 -0.2687015518 0.7218562056
    outer loop
      vertex 0.0000698601 0.0001250000 0.0004577923
      vertex 0.0000642793 0.0000930241 0.0004409591
      vertex 0.0000915704 0.0000921833 0.0004647573
    endloop
  endfacet
  facet normal -0.5375360355 -0.1808045492 0.8236289975
    outer loop
      vertex 0.0000698601 0.0001250000 0.0004577923
      vertex 0.0000915704 0.0000921833 0.0004647573
      vertex 0.0000951768 0.0001250000 0.0004743150
    endloop
  endfacet
  facet normal -0.5394043719 0.1611035747 0.8264917191
    outer loop
      vertex 0.0000698601 0.0001250000 0.0004577923
      vertex 0.0000951768 0.0001250000 0.0004743150
      vertex 0.0000704546 0.0001477030 0.0004537549
    endloop
  endfacet
  facet normal -0.8220739051 0.5452187077 -0.1641068412
    outer loop
      vertex 0.0000669726 0.0001800322 0.0004007865
      vertex 0.0000622709 0.0001630636 0.0003679637
      vertex 0.0000498933 0.0001517448 0.0003923627
    endloop
  endfacet
  facet normal -0.8628177260 0.5011026044 0.0666464664
    outer loop
      vertex 0.0000669726 0.0001800322 0.0004007865
      vertex 0.0000498933 0.0001517448 0.0003923627
      vertex 0.0000541587 0.0001551627 0.0004218838
    endloop
  endfacet
  facet normal -0.6578794705 0.7033081691 -0.2693551959
    outer loop
      vertex 0.0000669726 0.0001800322 0.0004007865
      vertex 0.0000920292 0.0001925940 0.0003723876
      vertex 0.0000622709 0.0001630636 0.0003679637
    endloop
  endfacet
  facet normal -0.7133760717 0.6292417743 0.3084629147
    outer loop
      vertex 0.0000669726 0.0001800322 0.0004007865
      vertex 0.0000541587 0.0001551627 0.0004218838
      vertex 0.0000856145 0.0001821137 0.0004396530
    endloop
  endfacet
  facet normal -0.5813581752 0.7783179458 0.2371578533
    outer loop
      vertex 0.0000669726 0.0001800322 0.0004007865
      vertex 0.0000856145 0.0001821137 0.0004396530
      vertex 0.0000959913 0.0001989650 0.0004097866
    endloop
  endfacet
  facet normal -0.5248503783 0.8465695316 -0.0886121240
    outer loop
      vertex 0.0000669726 0.0001800322 0.0004007865
      vertex 0.0000959913 0.0001989650 0.0004097866
      vertex 0.0000920292 0.0001925940 0.0003723876
    endloop
  endfacet
  facet normal -0.5663540188 0.6471725591 -0.5103046189
    outer loop
      vertex 0.0000868925 0.0001637131 0.0003414615
      vertex 0.0000622709 0.0001630636 0.0003679637
      vertex 0.0000920292 0.0001925940 0.0003723876
    endloop
  endfacet
endsolid BALL/PART41
